<?xml version="1.0" encoding="UTF-8"?>
<!DOCTYPE svg PUBLIC "-//W3C//DTD SVG 1.1//EN" "http://www.w3.org/Graphics/SVG/1.1/DTD/svg11.dtd">
<!-- Creator: CorelDRAW 2021 (64-Bit) -->
<svg xmlns="http://www.w3.org/2000/svg" xml:space="preserve" width="707px" height="722px" version="1.1" style="shape-rendering:geometricPrecision; text-rendering:geometricPrecision; image-rendering:optimizeQuality; fill-rule:evenodd; clip-rule:evenodd"
viewBox="0 0 706.92 722.03"
 xmlns:xlink="http://www.w3.org/1999/xlink"
 xmlns:xodm="http://www.corel.com/coreldraw/odm/2003">
 <defs>
  <style type="text/css">
   <![CDATA[
    .str0 {stroke:black;stroke-width:3;stroke-linecap:round;stroke-linejoin:round;stroke-miterlimit:2.61313}
    .str1 {stroke:white;stroke-width:3;stroke-linecap:round;stroke-linejoin:round;stroke-miterlimit:2.61313}
    .fil1 {fill:black}
    .fil0 {fill:black;fill-rule:nonzero}
   ]]>
  </style>
 </defs>
 <g id="Layer_x0020_1">
  <metadata id="CorelCorpID_0Corel-Layer"/>
  <path class="fil0" d="M37.37 722.03c-10.58,0 -19.31,-2.48 -26.18,-7.44 -6.88,-4.96 -10.61,-12.23 -11.19,-21.81l29.5 0c0.41,5.09 2.66,7.63 6.75,7.63 1.5,0 2.77,-0.36 3.81,-1.07 1.04,-0.71 1.56,-1.81 1.56,-3.31 0,-2.08 -1.12,-3.77 -3.37,-5.06 -2.25,-1.29 -5.75,-2.77 -10.5,-4.44 -5.67,-2 -10.36,-3.95 -14.06,-5.87 -3.71,-1.92 -6.9,-4.71 -9.56,-8.38 -2.67,-3.66 -3.96,-8.37 -3.88,-14.12 0,-5.75 1.48,-10.64 4.44,-14.68 2.95,-4.04 7,-7.11 12.12,-9.19 5.12,-2.08 10.9,-3.13 17.31,-3.13 10.83,0 19.44,2.5 25.81,7.5 6.38,5 9.73,12.04 10.06,21.13l-29.87 0c-0.08,-2.5 -0.71,-4.3 -1.87,-5.38 -1.17,-1.08 -2.59,-1.62 -4.25,-1.62 -1.17,0 -2.13,0.39 -2.88,1.18 -0.75,0.8 -1.12,1.9 -1.12,3.32 0,2 1.1,3.64 3.31,4.93 2.21,1.29 5.73,2.86 10.56,4.69 5.58,2.08 10.19,4.08 13.81,6 3.63,1.92 6.77,4.58 9.44,8 2.66,3.42 4,7.71 4,12.87 0,5.42 -1.34,10.27 -4,14.56 -2.67,4.29 -6.54,7.65 -11.63,10.06 -5.08,2.42 -11.12,3.63 -18.12,3.63z"/>
  <path id="_1" class="fil0" d="M123.99 722.03c-8.34,0 -15.98,-1.96 -22.94,-5.88 -6.96,-3.91 -12.48,-9.33 -16.56,-16.24 -4.08,-6.92 -6.12,-14.71 -6.12,-23.38 0,-8.66 2.04,-16.45 6.12,-23.37 4.08,-6.91 9.6,-12.31 16.56,-16.18 6.96,-3.88 14.6,-5.82 22.94,-5.82 8.33,0 15.95,1.94 22.87,5.82 6.92,3.87 12.39,9.27 16.43,16.18 4.04,6.92 6.07,14.71 6.07,23.37 0,8.67 -2.03,16.46 -6.07,23.38 -4.04,6.91 -9.54,12.33 -16.49,16.24 -6.96,3.92 -14.56,5.88 -22.81,5.88zm0 -25.87c5.5,0 9.75,-1.77 12.75,-5.32 3,-3.54 4.5,-8.31 4.5,-14.31 0,-6.08 -1.5,-10.89 -4.5,-14.43 -3,-3.54 -7.25,-5.31 -12.75,-5.31 -5.59,0 -9.88,1.77 -12.88,5.31 -3,3.54 -4.5,8.35 -4.5,14.43 0,6 1.5,10.77 4.5,14.31 3,3.55 7.29,5.32 12.88,5.32z"/>
  <polygon id="_2" class="fil0" points="207.1,700.16 233.85,700.16 233.85,721.15 179.36,721.15 179.36,632.66 207.1,632.66 "/>
  <path id="_3" class="fil0" d="M299.34 707.78l-29.5 0 -4.37 13.37 -29.12 0 32.37 -88.49 32 0 32.24 88.49 -29.24 0 -4.38 -13.37zm-6.75 -20.87l-8 -24.63 -8 24.63 16 0z"/>
  <path id="_4" class="fil0" d="M383.71 721.15l-16.62 -31.74 -0.13 0 0 31.74 -27.75 0 0 -88.49 41.25 0c7.16,0 13.29,1.28 18.37,3.82 5.08,2.54 8.9,6 11.44,10.37 2.54,4.38 3.81,9.31 3.81,14.81 0,5.92 -1.65,11.17 -4.94,15.75 -3.29,4.58 -8.02,7.87 -14.18,9.87l19.24 33.87 -30.49 0zm-16.75 -50.24l11 0c2.66,0 4.66,-0.6 6,-1.81 1.33,-1.21 2,-3.11 2,-5.69 0,-2.33 -0.69,-4.17 -2.07,-5.5 -1.37,-1.33 -3.35,-2 -5.93,-2l-11 0 0 15z"/>
  <path id="_5" class="fil0" d="M516.57 663.03c0,5.59 -1.3,10.65 -3.88,15.19 -2.58,4.54 -6.39,8.15 -11.43,10.81 -5.04,2.67 -11.15,4 -18.31,4l-11 0 0 28.12 -27.75 0 0 -88.49 38.75 0c10.83,0 19.14,2.75 24.93,8.25 5.79,5.5 8.69,12.88 8.69,22.12zm-36.75 8.13c5.75,0 8.62,-2.71 8.62,-8.13 0,-5.41 -2.87,-8.12 -8.62,-8.12l-7.87 0 0 16.25 7.87 0z"/>
  <path id="_6" class="fil0" d="M582.06 707.78l-29.5 0 -4.37 13.37 -29.12 0 32.37 -88.49 32 0 32.24 88.49 -29.24 0 -4.38 -13.37zm-6.75 -20.87l-8 -24.63 -8 24.63 16 0z"/>
  <polygon id="_7" class="fil0" points="706.92,632.66 675.17,694.28 675.17,721.15 647.43,721.15 647.43,694.28 615.68,632.66 647.43,632.66 661.55,664.03 675.67,632.66 "/>
  <g id="_1787188054048">
   <path class="fil0" d="M119.45 43.94l216.05 105.5 1.25 0.65c6.78,3.21 12.97,5.02 18.97,5.21 6.17,0.2 12.93,-1.27 20.8,-4.62l205.4 -106.45c7.69,-3.98 15.58,-5.99 23.52,-6.32 15.46,-0.65 29.72,5.25 41.93,15.26 10.33,8.48 19.21,20.06 25.8,32.78 7.67,14.8 12.52,31.76 13.18,47.59l10 237.63c2.06,48.97 -33.16,66.74 -69.88,85.27 -3.7,1.87 -7.43,3.75 -11.51,5.89l-246.28 129.44c-7.44,3.91 -15.96,3.7 -22.93,0.16l-0.02 0.03 -253.54 -129.44c-6.76,-3.45 -8.16,-4.14 -9.42,-4.77l-0.07 -0.04 -0.02 0.04c-37.37,-18.59 -73.22,-36.43 -72.18,-86.09l5 -237.63c0.32,-15.23 4.54,-31.26 11.45,-45.42 6.44,-13.18 15.4,-25.26 25.97,-34.17 12.27,-10.36 26.8,-16.63 42.61,-16.3 8.11,0.17 16.15,2 23.92,5.8zm194.18 150.41l-216.05 -105.49c-1.25,-0.61 -2.26,-0.91 -3.02,-0.92 -2.7,-0.06 -6.01,1.7 -9.42,4.58 -5.13,4.32 -9.73,10.7 -13.27,17.96 -3.99,8.16 -6.41,16.85 -6.57,24.52l-5 237.64c-0.38,17.99 21.66,28.96 44.64,40.39l-0.02 0.04 9.92 4.93 242.09 123.59 234.79 -123.4c3.8,-1.99 8.06,-4.14 12.29,-6.28 22.08,-11.14 43.26,-21.83 42.55,-38.79l-10 -237.63c-0.36,-8.43 -3.2,-17.96 -7.72,-26.69 -3.64,-7.01 -8.16,-13.1 -13.11,-17.15 -3.08,-2.52 -6,-4.04 -8.34,-3.94 -0.68,0.02 -1.55,0.3 -2.62,0.85l-206.01 106.76 -1.47 0.69c-15.16,6.65 -29.17,9.53 -43.13,9.09 -13.51,-0.43 -26.2,-3.94 -39.16,-10.13l-1.37 -0.62zm60.73 -105.83l21.78 12.11 -54.38 26.72 -108.7 -55.66c-22.17,-10.03 -38.02,-21.44 -50.61,-20.13 -11.52,1.2 -19.39,14.39 -27.38,10.69l-47.06 -21.76c25.66,-24.84 46.73,-36.17 69.36,-38.53 24.89,-2.59 46.95,5.98 76.76,19.48l-0.02 0.04c0.63,0.28 1.26,0.59 1.87,0.94l118.38 66.1z"/>
   <circle class="fil1 str0" cx="167.92" cy="276.57" r="37.63"/>
   <path class="fil0" d="M313.43 88.52l-21.78 12.11 49.38 26.72 113.7 -55.66c22.17,-10.03 38.02,-21.44 50.61,-20.13 11.51,1.2 38.84,22.82 47.37,20.69l47.06 -11.76c-25.66,-24.84 -66.73,-56.17 -89.36,-58.53 -24.88,-2.59 -46.95,5.98 -76.75,19.48l0.02 0.04c-0.63,0.28 -1.26,0.59 -1.88,0.94l-118.37 66.1z"/>
   <path class="fil0 str1" d="M374.36 88.52l21.78 12.11 -54.38 26.72 -108.7 -55.66c-22.17,-10.03 -38.02,-21.44 -50.61,-20.13 -11.52,1.2 -19.39,14.39 -27.38,10.69l-47.06 -21.76c25.66,-24.84 46.73,-36.17 69.36,-38.53 24.89,-2.59 46.95,5.98 76.76,19.48l-0.02 0.04c0.63,0.28 1.26,0.59 1.87,0.94l118.38 66.1z"/>
  </g>
 </g>
</svg>
