<?xml version="1.0" encoding="UTF-8"?>
<!DOCTYPE svg PUBLIC "-//W3C//DTD SVG 1.1//EN" "http://www.w3.org/Graphics/SVG/1.1/DTD/svg11.dtd">
<!-- Creator: CorelDRAW 2021 (64-Bit) -->
<svg xmlns="http://www.w3.org/2000/svg" xml:space="preserve" width="686px" height="595px" version="1.1" style="shape-rendering:geometricPrecision; text-rendering:geometricPrecision; image-rendering:optimizeQuality; fill-rule:evenodd; clip-rule:evenodd"
viewBox="0 0 685.92 594.61"
 xmlns:xlink="http://www.w3.org/1999/xlink"
 xmlns:xodm="http://www.corel.com/coreldraw/odm/2003">
 <defs>
  <style type="text/css">
   <![CDATA[
    .str0 {stroke:black;stroke-width:3;stroke-linecap:round;stroke-linejoin:round;stroke-miterlimit:2.61313}
    .str1 {stroke:white;stroke-width:3;stroke-linecap:round;stroke-linejoin:round;stroke-miterlimit:2.61313}
    .fil1 {fill:black}
    .fil0 {fill:black;fill-rule:nonzero}
   ]]>
  </style>
 </defs>
 <g id="Layer_x0020_1">
  <metadata id="CorelCorpID_0Corel-Layer"/>
  <g id="_1787187956864">
   <path class="fil0" d="M108.97 43.94l216.04 105.49 1.24 0.65c6.78,3.21 12.98,5.02 18.97,5.21 6.17,0.2 12.93,-1.27 20.8,-4.62l205.39 -106.44c7.68,-3.98 15.58,-5.99 23.52,-6.32 15.45,-0.65 29.71,5.25 41.92,15.26 10.34,8.48 19.21,20.06 25.8,32.78 7.67,14.8 12.52,31.75 13.19,47.58l9.99 237.62c2.07,48.96 -33.16,66.74 -69.88,85.26 -3.7,1.87 -7.43,3.75 -11.5,5.89l-246.27 129.43c-7.44,3.92 -15.96,3.7 -22.93,0.17l-0.02 0.03 -253.53 -129.43c-6.76,-3.45 -8.16,-4.15 -9.41,-4.77l-0.08 -0.04 -0.02 0.04c-37.37,-18.59 -73.21,-36.43 -72.17,-86.09l5 -237.62c0.32,-15.23 4.54,-31.26 11.45,-45.42 6.43,-13.17 15.4,-25.25 25.96,-34.16 12.28,-10.36 26.81,-16.63 42.62,-16.3 8.1,0.17 16.14,2 23.92,5.8zm194.16 150.4l-216.03 -105.49c-1.26,-0.61 -2.26,-0.9 -3.03,-0.92 -2.7,-0.05 -6,1.71 -9.42,4.59 -5.12,4.32 -9.72,10.69 -13.27,17.95 -3.98,8.17 -6.4,16.85 -6.56,24.52l-5 237.62c-0.38,18 21.66,28.96 44.63,40.4l-0.02 0.04 9.93 4.93 242.07 123.58 234.78 -123.39c3.8,-2 8.06,-4.15 12.28,-6.28 22.08,-11.14 43.26,-21.83 42.55,-38.79l-10 -237.62c-0.35,-8.43 -3.19,-17.96 -7.72,-26.69 -3.63,-7.01 -8.16,-13.09 -13.11,-17.15 -3.07,-2.52 -5.99,-4.04 -8.33,-3.94 -0.68,0.03 -1.55,0.3 -2.63,0.86l-206 106.75 -1.46 0.69c-15.16,6.64 -29.17,9.53 -43.13,9.09 -13.51,-0.43 -26.2,-3.94 -39.16,-10.13l-1.37 -0.62zm60.73 -105.83l21.77 12.11 -54.37 26.72 -108.7 -55.66c-22.16,-10.02 -38.01,-21.43 -50.6,-20.12 -11.52,1.2 -19.39,14.38 -27.38,10.69l-47.05 -21.76c25.65,-24.84 46.72,-36.17 69.35,-38.53 24.89,-2.59 46.95,5.98 76.75,19.48l-0.01 0.03c0.63,0.29 1.25,0.6 1.87,0.95l118.37 66.09z"/>
   <circle class="fil1 str0" cx="157.43" cy="276.55" r="37.63"/>
   <path class="fil0" d="M302.93 88.51l-21.78 12.11 49.38 26.72 113.7 -55.66c22.16,-10.02 38.01,-21.43 50.6,-20.12 11.51,1.2 38.84,22.82 47.37,20.69l47.06 -11.76c-25.66,-24.84 -66.73,-56.17 -89.35,-58.53 -24.89,-2.59 -46.95,5.98 -76.75,19.48l0.01 0.03c-0.63,0.29 -1.25,0.6 -1.87,0.95l-118.37 66.09z"/>
   <path class="fil0 str1" d="M363.86 88.51l21.77 12.11 -54.37 26.72 -108.7 -55.66c-22.16,-10.02 -38.01,-21.43 -50.6,-20.12 -11.52,1.2 -19.39,14.38 -27.38,10.69l-47.05 -21.76c25.65,-24.84 46.72,-36.17 69.35,-38.53 24.89,-2.59 46.95,5.98 76.75,19.48l-0.01 0.03c0.63,0.29 1.25,0.6 1.87,0.95l118.37 66.09z"/>
  </g>
 </g>
</svg>
