<?xml version="1.0" encoding="UTF-8"?>
<svg preserveAspectRatio="xMidYMid slice" xmlns="http://www.w3.org/2000/svg" width="300px" height="60px" viewBox="0 0 547 109" fill="none">
  <path d="M293.885 92.7985C293.889 92.2062 294.121 91.6384 294.533 91.2122C294.944 90.786 295.503 90.5341 296.095 90.5085C296.312 90.5062 296.526 90.5494 296.725 90.6353C296.924 90.7212 297.103 90.8478 297.25 91.0071C297.397 91.1663 297.509 91.3546 297.579 91.5599C297.649 91.7651 297.674 91.9826 297.655 92.1985C297.66 92.7875 297.434 93.3549 297.024 93.7779C296.614 94.2008 296.054 94.4454 295.465 94.4585C295.249 94.4648 295.034 94.4255 294.834 94.3432C294.634 94.2609 294.454 94.1375 294.305 93.9809C294.156 93.8243 294.041 93.6381 293.969 93.4344C293.897 93.2307 293.868 93.014 293.885 92.7985Z" fill="#011B33"></path>
  <path d="M301.155 92.7985C301.159 92.2062 301.391 91.6384 301.803 91.2122C302.214 90.786 302.773 90.5341 303.365 90.5085C303.582 90.5062 303.796 90.5494 303.995 90.6353C304.194 90.7212 304.373 90.8478 304.52 91.0071C304.667 91.1663 304.779 91.3546 304.849 91.5599C304.919 91.7651 304.944 91.9826 304.925 92.1985C304.928 92.7867 304.7 93.3526 304.291 93.7751C303.881 94.1975 303.323 94.4428 302.735 94.4585C302.519 94.4648 302.304 94.4255 302.104 94.3432C301.904 94.2609 301.724 94.1375 301.575 93.9809C301.426 93.8243 301.311 93.6381 301.239 93.4344C301.167 93.2307 301.138 93.014 301.155 92.7985Z" fill="#011B33"></path>
  <path d="M308.425 92.7985C308.429 92.2062 308.661 91.6384 309.073 91.2122C309.484 90.786 310.043 90.5341 310.635 90.5085C310.852 90.5062 311.066 90.5494 311.265 90.6353C311.464 90.7212 311.643 90.8478 311.79 91.0071C311.937 91.1663 312.049 91.3546 312.119 91.5599C312.189 91.7651 312.214 91.9826 312.195 92.1985C312.198 92.7867 311.97 93.3526 311.561 93.7751C311.151 94.1975 310.593 94.4428 310.005 94.4585C309.789 94.4648 309.574 94.4255 309.374 94.3432C309.174 94.2609 308.994 94.1375 308.845 93.9809C308.696 93.8243 308.581 93.6381 308.509 93.4344C308.437 93.2307 308.408 93.014 308.425 92.7985Z" fill="#011B33"></path>
  <path d="M313.255 99.0685L314.155 96.9885C314.462 97.1543 314.806 97.237 315.155 97.2285C316.275 97.2285 317.365 96.2285 318.095 94.7985L318.495 94.0085L316.225 81.0085H319.005L319.825 87.6285C319.975 88.8085 320.095 90.3285 320.165 91.5685H320.265C320.845 90.3385 321.505 88.8585 322.105 87.6285L325.405 80.9985H328.195L320.805 94.8285C319.195 97.6885 317.565 99.5285 314.945 99.5285C314.355 99.4977 313.779 99.3409 313.255 99.0685Z" fill="#011B33"></path>
  <path d="M328.085 89.1185C328.085 84.1185 331.705 80.6985 335.305 80.6985C338.255 80.6985 340.205 82.7685 340.205 86.0385C340.205 91.0385 336.585 94.4585 332.975 94.4585C330.005 94.4585 328.085 92.3885 328.085 89.1185ZM337.305 86.1185C337.305 84.1185 336.505 83.0085 334.995 83.0085C332.915 83.0085 330.995 85.6485 330.995 89.0085C330.995 91.0085 331.795 92.1185 333.295 92.1185C335.375 92.1285 337.305 89.4885 337.305 86.1385V86.1185Z" fill="#011B33"></path>
  <path d="M352.405 94.1385H350.065L350.195 92.2585H350.085C348.933 93.5 347.369 94.2816 345.685 94.4585C343.495 94.4585 342.575 93.2485 342.575 91.1385C342.58 90.5195 342.65 89.9027 342.785 89.2985L344.445 80.9985H347.305L345.715 88.9185C345.596 89.373 345.525 89.839 345.505 90.3085C345.467 90.5337 345.482 90.7646 345.55 90.9827C345.617 91.2009 345.735 91.4001 345.894 91.5645C346.052 91.7289 346.247 91.8537 346.463 91.9291C346.678 92.0045 346.908 92.0282 347.135 91.9985C348.025 91.9985 349.045 91.3685 350.375 89.9985L352.135 80.9985H355.005L352.405 94.1385Z" fill="#011B33"></path>
  <path d="M359.005 80.9985H361.345L361.105 83.5285H361.215C362.215 81.9085 363.695 80.6785 365.215 80.6785C365.664 80.6593 366.112 80.7413 366.525 80.9185L365.525 83.4385C365.141 83.2712 364.723 83.1958 364.305 83.2185C363.075 83.2185 361.815 84.2185 360.735 86.2185L359.185 94.1485H356.325L359.005 80.9985Z" fill="#011B33"></path>
  <path d="M374.135 95.4285L373.385 99.3385H370.525L374.205 80.9985H376.545L376.475 82.6085H376.555C377.705 81.4867 379.213 80.8038 380.815 80.6785C383.125 80.6785 384.555 82.3885 384.555 85.4685C384.555 90.4685 381.135 94.4685 377.555 94.4685C376.963 94.4617 376.383 94.2992 375.874 93.9972C375.365 93.6953 374.945 93.2646 374.655 92.7485H374.605L374.135 95.4285ZM376.285 84.9985L375.165 90.5885C375.337 91.0318 375.635 91.4149 376.022 91.6904C376.41 91.9659 376.87 92.1217 377.345 92.1385C379.555 92.1385 381.595 89.2885 381.595 85.9085C381.595 83.9985 380.835 83.0985 379.645 83.0985C378.98 83.1509 378.335 83.3481 377.754 83.6763C377.174 84.0046 376.672 84.4558 376.285 84.9985Z" fill="#011B33"></path>
  <path d="M393.675 80.6985C396.725 80.6985 397.855 82.8285 397.855 85.5385C397.832 86.4917 397.639 87.4332 397.285 88.3185H389.285C389.015 91.0885 390.535 92.2585 392.535 92.2585C393.504 92.1948 394.433 91.847 395.205 91.2585L396.255 93.0885C394.94 94.0023 393.376 94.4877 391.775 94.4785C388.645 94.4785 386.515 92.4785 386.515 88.9285C386.525 83.9985 390.225 80.6985 393.675 80.6985ZM395.345 86.4985C395.433 86.1215 395.476 85.7356 395.475 85.3485C395.475 84.0785 394.935 82.9285 393.335 82.9285C391.735 82.9285 390.185 84.2585 389.555 86.4985H395.345Z" fill="#011B33"></path>
  <path d="M407.525 85.9985C407.6 85.7079 407.637 85.4087 407.635 85.1085C407.635 83.5485 406.915 82.9885 405.575 82.9885C404.358 83.0547 403.177 83.4299 402.145 84.0785L401.245 82.0785C402.763 81.2587 404.45 80.8001 406.175 80.7385C408.875 80.7385 410.475 81.9985 410.475 84.8385C410.467 85.4612 410.393 86.0813 410.255 86.6885L408.775 94.1785H406.445V92.7485H406.355C405.275 93.7937 403.855 94.415 402.355 94.4985C401.922 94.521 401.49 94.4532 401.085 94.2995C400.681 94.1458 400.312 93.9096 400.004 93.6058C399.695 93.3019 399.453 92.9372 399.293 92.5349C399.133 92.1325 399.059 91.7012 399.075 91.2685C399.135 87.4385 402.705 86.0985 407.525 85.9985ZM401.935 90.6785C401.935 91.7385 402.665 92.2585 403.695 92.2585C404.797 92.1491 405.821 91.6405 406.575 90.8285L407.185 87.8285C403.755 87.8585 401.935 88.9085 401.935 90.6485V90.6785Z" fill="#011B33"></path>
  <path d="M412.875 89.1185C412.875 84.4185 416.315 80.6985 420.405 80.6985C421.065 80.6913 421.719 80.8322 422.318 81.1108C422.916 81.3894 423.445 81.7987 423.865 82.3085L422.235 83.9985C422.004 83.6863 421.702 83.433 421.355 83.2592C421.007 83.0855 420.623 82.9961 420.235 82.9985C417.875 82.9985 415.815 85.7285 415.815 88.9985C415.815 90.9985 416.695 92.1085 418.465 92.1085C419.382 92.0695 420.257 91.7165 420.945 91.1085L422.175 92.9185C420.951 93.8972 419.432 94.433 417.865 94.4385C415.005 94.4585 412.875 92.5185 412.875 89.1185Z" fill="#011B33"></path>
  <path d="M431.495 80.6985C434.495 80.6985 435.675 82.8285 435.675 85.5385C435.649 86.4923 435.452 87.4338 435.095 88.3185H427.095C426.825 91.0885 428.355 92.2585 430.345 92.2585C431.314 92.1948 432.243 91.847 433.015 91.2585L434.065 93.0885C432.751 94.0041 431.186 94.4897 429.585 94.4785C426.455 94.4785 424.335 92.4785 424.335 88.9285C424.345 83.9985 428.005 80.6985 431.495 80.6985ZM433.155 86.4985C433.243 86.1215 433.286 85.7356 433.285 85.3485C433.285 84.0785 432.745 82.9285 431.145 82.9285C429.545 82.9285 427.995 84.2585 427.365 86.4985H433.155Z" fill="#011B33"></path>
  <path d="M435.845 97.2085C436.609 97.0303 437.311 96.652 437.881 96.1125C438.45 95.573 438.866 94.8917 439.085 94.1385L439.385 91.8085L440.125 93.8085C439.843 94.0491 439.494 94.1959 439.125 94.2285C438.901 94.251 438.675 94.226 438.461 94.1551C438.247 94.0842 438.051 93.969 437.885 93.8171C437.719 93.6651 437.587 93.4798 437.497 93.2733C437.407 93.0667 437.362 92.8436 437.365 92.6185C437.353 92.3414 437.4 92.0651 437.501 91.8069C437.602 91.5487 437.756 91.3144 437.952 91.1188C438.149 90.9232 438.384 90.7706 438.643 90.6707C438.901 90.5708 439.178 90.5258 439.455 90.5385C440.645 90.5385 441.305 91.3685 441.305 92.7185C441.304 94.1737 440.798 95.5835 439.874 96.707C438.949 97.8306 437.663 98.5981 436.235 98.8785L435.845 97.2085Z" fill="#011B33"></path>
  <path d="M450.145 89.1185C450.145 84.1185 453.775 80.6985 457.375 80.6985C460.325 80.6985 462.265 82.7685 462.265 86.0385C462.265 91.0385 458.645 94.4585 455.045 94.4585C452.095 94.4585 450.145 92.3885 450.145 89.1185ZM459.375 86.1185C459.375 84.1185 458.575 83.0085 457.065 83.0085C454.975 83.0085 453.065 85.6485 453.065 89.0085C453.065 91.0085 453.865 92.1185 455.375 92.1185C457.435 92.1285 459.375 89.4885 459.375 86.1385V86.1185Z" fill="#011B33"></path>
  <path d="M474.465 94.1385H472.125L472.255 92.2585H472.155C471 93.5022 469.433 94.284 467.745 94.4585C465.555 94.4585 464.635 93.2485 464.635 91.1385C464.639 90.5188 464.712 89.9016 464.855 89.2985L466.505 80.9985H469.375L467.775 88.9185C467.661 89.374 467.59 89.8395 467.565 90.3085C467.529 90.5342 467.546 90.7653 467.615 90.9833C467.684 91.2013 467.802 91.4003 467.962 91.5643C468.121 91.7284 468.316 91.8531 468.532 91.9285C468.748 92.0038 468.978 92.0278 469.205 91.9985C470.085 91.9985 471.115 91.3685 472.435 89.9985L474.205 80.9985H477.065L474.465 94.1385Z" fill="#011B33"></path>
  <path d="M481.055 80.9985H483.395L483.165 83.5285H483.265C484.265 81.9085 485.745 80.6785 487.265 80.6785C487.717 80.6578 488.169 80.7399 488.585 80.9185L487.585 83.4385C487.201 83.2722 486.783 83.1969 486.365 83.2185C485.135 83.2185 483.875 84.2185 482.795 86.2185L481.245 94.1485H478.375L481.055 80.9985Z" fill="#011B33"></path>
  <path d="M492.495 96.8185C492.495 95.1985 493.965 94.1285 495.445 93.4685V93.3785C495.189 93.1655 494.986 92.8973 494.849 92.5942C494.712 92.2911 494.646 91.9609 494.655 91.6285C494.703 91.1031 494.884 90.5986 495.182 90.1629C495.479 89.7272 495.883 89.3746 496.355 89.1385V88.9985C495.913 88.635 495.558 88.1765 495.318 87.6571C495.077 87.1378 494.956 86.5708 494.965 85.9985C494.963 85.2775 495.107 84.5635 495.386 83.8989C495.666 83.2344 496.076 82.6328 496.593 82.13C497.11 81.6272 497.723 81.2334 498.395 80.9721C499.067 80.7107 499.784 80.587 500.505 80.6085C501.091 80.597 501.673 80.7059 502.215 80.9285H506.885L506.475 83.0985H504.195C504.489 83.5805 504.644 84.134 504.645 84.6985C504.645 87.7585 502.315 89.8985 499.065 89.8985C498.627 89.9042 498.191 89.8366 497.775 89.6985C497.552 89.8382 497.366 90.0291 497.232 90.2552C497.098 90.4813 497.02 90.7361 497.005 90.9985C497.005 91.7785 497.435 92.0885 499.335 92.2985C502.945 92.7485 504.055 93.6485 504.055 95.2985C504.055 98.3585 500.725 99.8885 497.465 99.8885C495.395 99.9985 492.495 99.3185 492.495 96.8185ZM501.255 96.0685C501.255 95.0685 500.185 94.6985 498.455 94.4985C498.035 94.4385 497.455 94.3385 496.885 94.1985C496.025 94.6385 494.975 95.3885 494.975 96.2985C494.975 97.5385 496.065 98.0985 497.775 98.0985C499.775 98.0985 501.255 97.2385 501.255 96.0685ZM502.165 84.8385C502.165 83.5185 501.495 82.7085 500.405 82.7085C498.765 82.7085 497.605 84.3785 497.605 86.0385C497.605 87.3585 498.275 88.1685 499.365 88.1685C501.005 88.1685 502.165 86.4985 502.165 84.8385Z" fill="#011B33"></path>
  <path d="M506.905 89.1185C506.905 84.1185 510.525 80.6985 514.135 80.6985C517.135 80.6985 519.025 82.7685 519.025 86.0385C519.025 91.0385 515.405 94.4585 511.805 94.4585C508.855 94.4585 506.905 92.3885 506.905 89.1185ZM516.125 86.1185C516.125 84.1185 515.325 83.0085 513.825 83.0085C511.735 83.0085 509.825 85.6485 509.825 89.0085C509.825 91.0085 510.625 92.1185 512.135 92.1185C514.195 92.1285 516.125 89.4885 516.125 86.1385V86.1185Z" fill="#011B33"></path>
  <path d="M528.835 85.9985C528.918 85.7092 528.958 85.4094 528.955 85.1085C528.955 83.5485 528.225 82.9885 526.895 82.9885C525.678 83.0547 524.497 83.4299 523.465 84.0785L522.565 82.0785C524.083 81.2573 525.77 80.7987 527.495 80.7385C530.195 80.7385 531.785 81.9985 531.785 84.8385C531.78 85.4608 531.71 86.081 531.575 86.6885L530.085 94.1785H527.765V92.7485H527.675C526.595 93.7937 525.175 94.415 523.675 94.4985C523.242 94.5209 522.809 94.4531 522.404 94.2995C521.999 94.1459 521.63 93.9098 521.32 93.6062C521.011 93.3025 520.768 92.938 520.607 92.5356C520.446 92.1331 520.37 91.7017 520.385 91.2685C520.445 87.4385 524.005 86.0985 528.835 85.9985ZM523.245 90.6785C523.245 91.7385 523.985 92.2585 525.015 92.2585C526.115 92.1504 527.136 91.6414 527.885 90.8285L528.505 87.8285C525.075 87.8585 523.245 88.9085 523.245 90.6485V90.6785Z" fill="#011B33"></path>
  <path d="M537.685 75.2685H540.555L536.765 94.1385H533.905L537.685 75.2685Z" fill="#011B33"></path>
  <path d="M543.155 29.2185L546.195 18.5985H507.085L500.785 29.2185H543.155Z" fill="#011B33"></path>
  <path d="M538.715 44.7585L542.025 33.1885H502.905L494.705 61.8285H533.825L536.985 50.7785H514.975L516.705 44.7585H538.715Z" fill="#011B33"></path>
  <path d="M494.395 29.2185L500.685 18.6185H468.685C465.683 18.6145 462.761 19.5882 460.361 21.3925C457.962 23.1967 456.215 25.7332 455.385 28.6185L455.215 29.2085L494.395 29.2185Z" fill="#011B33"></path>
  <path d="M454.115 33.1885L449.865 48.0985C449.407 49.7018 449.327 51.3896 449.632 53.0289C449.937 54.6683 450.619 56.2144 451.623 57.5455C452.627 58.8766 453.927 59.9563 455.42 60.6995C456.912 61.4428 458.557 61.8292 460.225 61.8285H485.065L488.225 50.8285H464.545L469.545 33.2385L454.115 33.1885Z" fill="#011B33"></path>
  <path d="M409.655 33.1885L385.025 61.8285H403.815L418.495 44.7585H427.935L431.935 61.8285H448.675L441.955 33.1885H409.655Z" fill="#011B33"></path>
  <path d="M441.025 29.2185L438.535 18.6085L438.545 18.5985H422.205L413.065 29.2185H441.025Z" fill="#011B33"></path>
  <path d="M391.325 44.7585L394.645 33.1885H355.525L347.325 61.8285H386.445L389.605 50.7785H367.595L369.325 44.7585H391.325Z" fill="#011B33"></path>
  <path d="M395.775 29.2185L398.815 18.5985H359.705L353.405 29.2185H395.775Z" fill="#011B33"></path>
  <path d="M302.655 33.1885L294.455 61.8285H309.185L314.075 44.7585H334.075C337.619 44.7552 341.072 43.6356 343.944 41.5588C346.816 39.482 348.961 36.5533 350.075 33.1885H302.655Z" fill="#011B33"></path>
  <path d="M351.215 29.2185C351.465 27.9276 351.428 26.5974 351.104 25.3229C350.78 24.0484 350.179 22.8612 349.343 21.8464C348.507 20.8315 347.456 20.0141 346.267 19.4526C345.078 18.8911 343.78 18.5994 342.465 18.5985H306.825L300.535 29.2185H351.215Z" fill="#011B33"></path>
  <path d="M259.855 29.2185C260.104 27.927 260.064 26.5966 259.739 25.3221C259.414 24.0477 258.812 22.8608 257.975 21.8462C257.138 20.8316 256.088 20.0144 254.898 19.4529C253.709 18.8915 252.41 18.5998 251.095 18.5985H215.265L209.005 29.2185H259.855Z" fill="#011B33"></path>
  <path d="M258.725 33.1885H211.085L202.885 61.8285H217.625L222.505 44.7585H239.215L234.335 61.8285H249.065L252.345 50.3585C252.722 49.0563 252.756 47.6789 252.444 46.3596C252.132 45.0404 251.485 43.824 250.565 42.8285C254.433 40.7963 257.359 37.3393 258.725 33.1885Z" fill="#011B33"></path>
  <path d="M203.055 29.2185L206.075 18.6585H190.415L187.395 29.2185H203.055Z" fill="#011B33"></path>
  <path d="M172.815 29.2185L170.415 18.6585H154.085L144.775 29.2185H172.815Z" fill="#011B33"></path>
  <path d="M186.255 33.1885L179.255 57.6585L173.705 33.1885H141.285L131.915 43.8285H159.755L164.415 61.8285H193.715L201.915 33.1885H186.255Z" fill="#011B33"></path>
  <path d="M112.005 45.5885C111.947 44.7419 111.833 43.9001 111.665 43.0685C111.545 42.4985 111.435 42.1485 111.295 41.4985C109.413 32.1382 104.563 23.6342 97.4649 17.2485C97.257 17.0634 97.0365 16.893 96.8049 16.7385C95.2449 15.3485 93.6249 14.0085 91.9549 12.7385C84.1904 6.67834 75.074 2.58847 65.3849 0.81849C59.6409 -0.177322 53.7761 -0.265057 48.0049 0.55849C42.6236 1.3526 37.3585 2.79647 32.3249 4.85849C24.9299 7.7182 18.4135 12.4659 13.4249 18.6285L13.0449 19.1085C13.0052 19.1647 12.9618 19.2181 12.9149 19.2685C12.2256 20.0931 11.5813 20.9544 10.9849 21.8485C10.9597 21.8817 10.9247 21.9061 10.8849 21.9185C9.40489 24.0685 7.88489 26.5685 7.73489 26.8385C3.77929 33.5458 1.25309 40.9984 0.314894 48.7285C-0.821589 58.3921 1.13554 68.1673 5.90489 76.6485C6.19489 77.1685 6.48489 77.6485 6.81489 78.1885C7.07314 78.7195 7.41029 79.2084 7.81489 79.6385C4.3155 72.9938 2.40865 65.6266 2.24489 58.1185V57.5085C2.24489 57.1285 2.24489 56.7485 2.24489 56.3785C2.36893 52.4353 2.99394 48.524 4.10489 44.7385C5.46766 40.1997 7.45323 35.8718 10.0049 31.8785C10.0049 31.8785 10.1849 31.5885 10.5149 31.0885C11.8902 29.0292 13.3897 27.0555 15.0049 25.1785C15.0463 25.1238 15.0932 25.0736 15.1449 25.0285C15.8949 24.1485 16.7049 23.2485 17.5749 22.3585L17.6249 22.3085C18.3249 21.6085 19.0449 20.9085 19.8049 20.2485C22.3091 17.9038 25.0583 15.8353 28.0049 14.0785C34.3854 10.3954 41.4552 8.06373 48.7749 7.22849C54.2254 6.52568 59.7524 6.68089 65.1549 7.68849C71.5942 8.89364 77.7443 11.317 83.2749 14.8285C88.3914 18.0862 93.015 22.0599 97.0049 26.6285C97.0804 26.7163 97.1641 26.7966 97.2549 26.8685C104.585 35.8685 106.605 49.1985 106.685 49.7885C106.825 51.9285 106.885 54.0685 106.855 56.2285C106.855 56.8485 106.855 57.4785 106.855 58.1085C106.686 63.1251 105.904 68.1021 104.525 72.9285C101.772 82.6517 95.8123 91.1588 87.6149 97.0685C81.257 101.594 74.1469 104.956 66.6149 106.998C64.6149 107.568 62.6149 108.058 60.5649 108.598C60.7548 108.609 60.945 108.609 61.1349 108.598C62.6449 108.338 64.1349 108.088 65.6549 107.768C72.2595 106.417 78.6328 104.113 84.5749 100.928C90.8728 97.5799 96.4277 92.9911 100.905 87.4385C108.055 78.4385 111.365 68.0885 112.075 56.7685C112.346 53.0458 112.322 49.3075 112.005 45.5885Z" fill="#011B33"></path>
  <path d="M135.905 16.7385C135.911 16.5799 135.88 16.4221 135.813 16.278C135.746 16.134 135.646 16.0079 135.521 15.9102C135.396 15.8125 135.25 15.746 135.094 15.7161C134.938 15.6863 134.777 15.6939 134.625 15.7385L130.955 16.2785C125.833 17.0174 120.78 18.1712 115.845 19.7285C113.263 20.5447 110.727 21.496 108.245 22.5785C108.105 22.6385 107.895 22.8585 107.705 22.8085L106.175 23.5185L106.045 23.5885C104.905 24.1085 103.795 24.7085 102.655 25.2485C97.6199 27.6754 93.1969 31.2063 89.7149 35.5785C85.8768 40.3917 82.4987 45.5543 79.6249 50.9985C78.6849 52.7285 77.7849 54.4685 76.8549 56.2085C75.6549 58.7685 72.5549 57.5285 71.2149 56.8385C70.9969 56.7432 70.7891 56.6259 70.5949 56.4885C70.3049 56.2985 70.0249 56.0985 69.7349 55.9385C65.2822 53.464 60.422 51.8078 55.3849 51.0485C49.5317 50.2452 43.5749 50.6882 37.9049 52.3485C34.9049 53.2085 31.8349 54.1485 28.9049 55.2085C28.2749 55.4385 26.2549 56.2085 22.0549 57.8585L21.5449 58.0685L21.3449 58.1485C21.0549 58.2685 20.7549 58.3885 20.4749 58.5185C20.4247 58.5777 20.3618 58.6247 20.2907 58.6559C20.2197 58.6871 20.1424 58.7017 20.0649 58.6985L19.0649 59.1785C18.0649 59.6685 17.0649 60.1785 16.0649 60.6785C13.7049 61.9985 12.0949 62.9985 12.0049 63.0685C10.2712 64.202 8.66522 65.5196 7.21489 66.9985C9.13489 66.7185 10.9249 66.4485 12.7249 66.2085C20.0269 65.0945 27.4093 64.5927 34.7949 64.7085C38.9339 64.7477 43.0458 65.3808 47.0049 66.5885C49.7543 67.4001 52.2525 68.8969 54.2649 70.9385C54.6149 71.3185 54.5949 71.4685 54.0749 71.5985C52.9349 71.8885 51.8249 72.2485 50.6849 72.5285C47.2149 73.3885 43.6849 74.0285 40.2549 75.0585C38.7399 75.4237 37.3012 76.0534 36.0049 76.9185C34.4849 78.0485 34.4349 78.3085 35.7049 79.7985C37.0028 81.138 38.6362 82.1049 40.4349 82.5985C44.8005 83.9809 49.298 84.9058 53.8549 85.3585C54.2749 85.3585 54.3149 85.2885 54.1849 84.9385C53.8961 84.1732 53.734 83.3659 53.7049 82.5485C53.6354 81.8568 53.8132 81.1628 54.2068 80.5898C54.6004 80.0168 55.1843 79.6018 55.8549 79.4185C57.0281 79.0261 58.2429 78.771 59.4749 78.6585C62.1149 78.3885 64.7749 78.4285 67.4149 78.1085C70.9175 77.758 74.3356 76.8181 77.5249 75.3285C81.0137 73.4918 84.149 71.0506 86.7849 68.1185C89.1849 65.6052 91.5682 63.0818 93.9349 60.5485C94.3049 60.1485 94.5849 60.0185 95.0949 60.3385C95.6049 60.6585 96.3949 60.9985 97.0349 61.3385C97.3449 61.5085 97.5049 61.5285 97.5049 61.0885C97.5436 59.9602 97.4665 58.831 97.2749 57.7185C97.1949 57.0233 96.9768 56.3512 96.6333 55.7415C96.2899 55.1319 95.828 54.5971 95.2749 54.1685C94.7693 53.7751 94.1765 53.5089 93.5466 53.3923C92.9166 53.2757 92.2678 53.3121 91.6549 53.4985C91.7249 53.2685 91.7649 53.0985 91.8149 52.9385C92.7347 50.286 93.8858 47.7195 95.2549 45.2685C96.67 42.708 98.5525 40.4354 100.805 38.5685C100.95 38.4372 101.121 38.3375 101.307 38.2755C101.493 38.2136 101.69 38.1907 101.885 38.2085C102.405 38.2501 102.927 38.1458 103.392 37.9073C103.856 37.6688 104.245 37.3057 104.515 36.8585C104.835 36.3685 104.965 35.8085 105.255 35.2585C106.115 36.8385 107.585 37.1485 109.125 37.1885C109.898 37.2321 110.66 36.9856 111.261 36.4974C111.862 36.0091 112.259 35.3142 112.375 34.5485C113.875 35.4885 114.555 35.4085 115.255 34.1085C115.545 33.5585 115.825 33.2485 116.485 33.3385C116.797 33.3449 117.1 33.2343 117.335 33.0285C117.869 32.6249 118.247 32.049 118.405 31.3985C118.515 31.0485 118.615 30.9985 118.945 31.1885C119.244 31.3778 119.591 31.4783 119.945 31.4783C120.299 31.4783 120.646 31.3778 120.945 31.1885C121.464 30.8469 121.887 30.3789 122.175 29.8285C122.335 29.5485 122.455 29.4185 122.835 29.4985C123.094 29.6048 123.374 29.6485 123.653 29.6262C123.932 29.6039 124.202 29.5161 124.44 29.3699C124.679 29.2238 124.88 29.0235 125.027 28.7852C125.173 28.5469 125.262 28.2774 125.285 27.9985C125.306 27.8499 125.37 27.7108 125.47 27.5987C125.569 27.4866 125.7 27.4065 125.845 27.3685C126.43 27.2095 126.938 26.8449 127.276 26.3416C127.614 25.8384 127.759 25.2301 127.685 24.6285C127.679 24.3204 127.652 24.0131 127.605 23.7085C127.605 23.5385 127.605 23.3785 127.785 23.3685C127.984 23.3928 128.185 23.3723 128.375 23.3085C128.37 23.2486 128.37 23.1884 128.375 23.1285L128.465 23.2485C128.607 23.1659 128.728 23.0533 128.822 22.9185C128.915 22.7837 128.977 22.6301 129.005 22.4685C129.005 22.4685 129.005 22.4685 129.005 22.4085C129 22.3686 129 22.3283 129.005 22.2885C129.053 21.7446 128.974 21.1969 128.775 20.6885C129.825 20.8485 130.775 21.0185 131.695 21.1285C132.123 21.1987 132.563 21.1665 132.976 21.0344C133.39 20.9023 133.766 20.6741 134.075 20.3685C134.777 19.6941 135.341 18.889 135.735 17.9985C135.897 17.5997 135.956 17.1661 135.905 16.7385Z" fill="#011B33"></path>
</svg>
