<?xml version="1.0" encoding="UTF-8"?>
<svg preserveAspectRatio="xMidYMid slice" xmlns="http://www.w3.org/2000/svg" width="300px" height="67px" viewBox="0 0 665.2 148.45">
  <defs>
    <style>.cls-1{fill:#051c32;}</style>
  </defs>
  <title>kuda Stack Blue</title>
  <g id="Layer_2" data-name="Layer 2">
    <g id="Layer_1-2" data-name="Layer 1">
      <path class="cls-1" d="M394.13,46V146.86H364.89V132.14a32.33,32.33,0,0,1-12.53,12.13,36.28,36.28,0,0,1-17.51,4.18q-18.9,0-28.25-10.54t-9.35-31.83V46h30v60.67Q327.29,125,343,125q9.35,0,15.12-6.37t5.77-16.71V46Z"></path>
      <path class="cls-1" d="M508.83,0V146.86H479.19V131.94a31.7,31.7,0,0,1-12.93,12.13,40.09,40.09,0,0,1-18.9,4.38,41.08,41.08,0,0,1-23.07-6.66,44.42,44.42,0,0,1-15.82-18.7q-5.67-12-5.67-27.56t5.67-27.35a43.49,43.49,0,0,1,15.72-18.3,41.85,41.85,0,0,1,23.17-6.47,40,40,0,0,1,18.5,4.28,31.57,31.57,0,0,1,12.93,11.84V0ZM473.22,117.91q6-7.65,6-22,0-14.12-6.07-21.78t-17-7.66q-11.14,0-17.31,7.56t-6.17,21.48q0,14.32,6.17,22.18t17.31,7.86Q467.25,125.57,473.22,117.91Z"></path>
      <path class="cls-1" d="M623.53,46V146.86H593.89V131.94A31.7,31.7,0,0,1,581,144.07a40.09,40.09,0,0,1-18.9,4.38,42.29,42.29,0,0,1-23.17-6.37,42.78,42.78,0,0,1-15.72-18.2Q517.5,112,517.5,96.53t5.67-27.65A44.23,44.23,0,0,1,539,50.08a41.09,41.09,0,0,1,23.07-6.67A38.7,38.7,0,0,1,581,48a33.11,33.11,0,0,1,12.93,12.33V46Zm-35.61,72q6-7.56,6-21.88t-6-22q-6-7.65-17.11-7.66t-17.3,8q-6.16,8-6.17,22.08t6.07,21.58q6.06,7.47,17.4,7.46Q582,125.57,587.92,118Z"></path>
      <path class="cls-1" d="M291.16,148.28H253.89L213.8,102.55v45.73H183.38V0H213.8V90.06l38.28-43.72h36.46l-43.31,49Z"></path>
      <polygon class="cls-1" points="100.03 148.33 41.65 81.14 73.54 148.33 51.44 148.33 18.92 79.83 32.44 148.33 18.86 148.33 5.33 79.72 5.33 148.33 0 148.33 0 0 5.33 0 5.33 74.01 19.05 0 32.58 0 18.81 74.33 51.96 0 73.82 0 40.8 74.05 100.76 0 135.02 0 72.99 76.61 135.31 148.33 100.03 148.33"></polygon>
      <circle class="cls-1" cx="648.73" cy="130.23" r="16.47"></circle>
    </g>
  </g>
</svg>
