<?xml version="1.0" encoding="UTF-8"?>
<svg preserveAspectRatio="xMidYMid slice" xmlns="http://www.w3.org/2000/svg" width="300px" height="148px" viewBox="0 0 61 30" fill="none">
  <g clip-path="url(#clip0_43_319)">
    <path d="M30.8086 0C14.2386 0 0.808594 6.72 0.808594 15C0.808594 23.28 14.2386 30 30.8086 30C47.3786 30 60.8086 23.28 60.8086 15C60.8086 6.72 47.3786 0 30.8086 0ZM30.8086 27.63C15.5486 27.63 3.17859 21.97 3.17859 15C3.17859 8.03 15.5486 2.37 30.8086 2.37C46.0686 2.37 58.4386 8.02 58.4386 15C58.4386 21.98 46.0686 27.63 30.8086 27.63ZM27.0286 12.37V10H35.4886V12.37H32.4386V20H30.0686V12.37H27.0286ZM45.7086 10V20H43.3386L39.0386 14.05V20H36.6686V10H39.0386L43.3386 15.95V10H45.7086ZM15.8386 20V10H18.2086L20.8386 14.05L23.4686 10H25.8386V20H23.4686V14.34L21.6686 17.1H20.0086L18.2086 14.34V20H15.8386Z" fill="#011B33"></path>
  </g>
  <defs>
    <clipPath id="clip0_43_319">
      <rect width="60" height="30" fill="white" transform="translate(0.808594)"></rect>
    </clipPath>
  </defs>
</svg>
